<mxfile host="app.diagrams.net" agent="Mozilla/5.0 (X11; Ubuntu; Linux x86_64; rv:132.0) Gecko/20100101 Firefox/132.0" version="26.0.9">
  <diagram name="Page-1" id="UMMCURnJsSLfz0RjDBhn">
    <mxGraphModel dx="891" dy="806" grid="1" gridSize="10" guides="1" tooltips="1" connect="1" arrows="1" fold="1" page="1" pageScale="1" pageWidth="850" pageHeight="1100" math="0" shadow="0">
      <root>
        <mxCell id="0" />
        <mxCell id="1" parent="0" />
        <mxCell id="K0qhx6kUg9He7qWmusZ7-3" value="" style="edgeStyle=orthogonalEdgeStyle;rounded=0;orthogonalLoop=1;jettySize=auto;html=1;" edge="1" parent="1" source="K0qhx6kUg9He7qWmusZ7-1" target="K0qhx6kUg9He7qWmusZ7-2">
          <mxGeometry relative="1" as="geometry" />
        </mxCell>
        <mxCell id="K0qhx6kUg9He7qWmusZ7-1" value="start" style="ellipse;whiteSpace=wrap;html=1;" vertex="1" parent="1">
          <mxGeometry x="370" y="20" width="120" height="80" as="geometry" />
        </mxCell>
        <mxCell id="K0qhx6kUg9He7qWmusZ7-28" value="" style="edgeStyle=orthogonalEdgeStyle;rounded=0;orthogonalLoop=1;jettySize=auto;html=1;" edge="1" parent="1" source="K0qhx6kUg9He7qWmusZ7-2" target="K0qhx6kUg9He7qWmusZ7-27">
          <mxGeometry relative="1" as="geometry" />
        </mxCell>
        <mxCell id="K0qhx6kUg9He7qWmusZ7-2" value="&lt;div&gt;read x&lt;/div&gt;&lt;div&gt;&lt;br&gt;&lt;/div&gt;" style="shape=parallelogram;perimeter=parallelogramPerimeter;whiteSpace=wrap;html=1;fixedSize=1;" vertex="1" parent="1">
          <mxGeometry x="370" y="140" width="120" height="60" as="geometry" />
        </mxCell>
        <mxCell id="K0qhx6kUg9He7qWmusZ7-8" value="" style="edgeStyle=orthogonalEdgeStyle;rounded=0;orthogonalLoop=1;jettySize=auto;html=1;" edge="1" parent="1" source="K0qhx6kUg9He7qWmusZ7-5" target="K0qhx6kUg9He7qWmusZ7-7">
          <mxGeometry relative="1" as="geometry" />
        </mxCell>
        <mxCell id="K0qhx6kUg9He7qWmusZ7-10" value="" style="edgeStyle=orthogonalEdgeStyle;rounded=0;orthogonalLoop=1;jettySize=auto;html=1;" edge="1" parent="1" source="K0qhx6kUg9He7qWmusZ7-5" target="K0qhx6kUg9He7qWmusZ7-9">
          <mxGeometry relative="1" as="geometry" />
        </mxCell>
        <mxCell id="K0qhx6kUg9He7qWmusZ7-5" value="x &amp;gt; 0" style="rhombus;whiteSpace=wrap;html=1;" vertex="1" parent="1">
          <mxGeometry x="390" y="370" width="80" height="80" as="geometry" />
        </mxCell>
        <mxCell id="K0qhx6kUg9He7qWmusZ7-52" value="" style="edgeStyle=orthogonalEdgeStyle;rounded=0;orthogonalLoop=1;jettySize=auto;html=1;" edge="1" parent="1" source="K0qhx6kUg9He7qWmusZ7-7" target="K0qhx6kUg9He7qWmusZ7-51">
          <mxGeometry relative="1" as="geometry" />
        </mxCell>
        <mxCell id="K0qhx6kUg9He7qWmusZ7-7" value="write read" style="shape=parallelogram;perimeter=parallelogramPerimeter;whiteSpace=wrap;html=1;fixedSize=1;" vertex="1" parent="1">
          <mxGeometry x="160" y="470" width="120" height="60" as="geometry" />
        </mxCell>
        <mxCell id="K0qhx6kUg9He7qWmusZ7-50" value="" style="edgeStyle=orthogonalEdgeStyle;rounded=0;orthogonalLoop=1;jettySize=auto;html=1;" edge="1" parent="1" source="K0qhx6kUg9He7qWmusZ7-9" target="K0qhx6kUg9He7qWmusZ7-19">
          <mxGeometry relative="1" as="geometry" />
        </mxCell>
        <mxCell id="K0qhx6kUg9He7qWmusZ7-9" value="cont == 10" style="rhombus;whiteSpace=wrap;html=1;" vertex="1" parent="1">
          <mxGeometry x="550" y="370" width="80" height="80" as="geometry" />
        </mxCell>
        <mxCell id="K0qhx6kUg9He7qWmusZ7-33" value="" style="edgeStyle=orthogonalEdgeStyle;rounded=0;orthogonalLoop=1;jettySize=auto;html=1;" edge="1" parent="1" source="K0qhx6kUg9He7qWmusZ7-17" target="K0qhx6kUg9He7qWmusZ7-32">
          <mxGeometry relative="1" as="geometry" />
        </mxCell>
        <mxCell id="K0qhx6kUg9He7qWmusZ7-34" value="true" style="edgeLabel;html=1;align=center;verticalAlign=middle;resizable=0;points=[];" vertex="1" connectable="0" parent="K0qhx6kUg9He7qWmusZ7-33">
          <mxGeometry x="0.225" y="-1" relative="1" as="geometry">
            <mxPoint as="offset" />
          </mxGeometry>
        </mxCell>
        <mxCell id="K0qhx6kUg9He7qWmusZ7-36" value="" style="edgeStyle=orthogonalEdgeStyle;rounded=0;orthogonalLoop=1;jettySize=auto;html=1;" edge="1" parent="1" source="K0qhx6kUg9He7qWmusZ7-17" target="K0qhx6kUg9He7qWmusZ7-35">
          <mxGeometry relative="1" as="geometry" />
        </mxCell>
        <mxCell id="K0qhx6kUg9He7qWmusZ7-17" value="&lt;div&gt;x % 2 == 0&lt;/div&gt;&lt;div&gt;and &lt;br&gt;&lt;/div&gt;&lt;div&gt;n &amp;gt; x / 2&lt;br&gt;&lt;/div&gt;" style="rhombus;whiteSpace=wrap;html=1;" vertex="1" parent="1">
          <mxGeometry x="530" y="640" width="120" height="100" as="geometry" />
        </mxCell>
        <mxCell id="K0qhx6kUg9He7qWmusZ7-31" value="" style="edgeStyle=orthogonalEdgeStyle;rounded=0;orthogonalLoop=1;jettySize=auto;html=1;" edge="1" parent="1" source="K0qhx6kUg9He7qWmusZ7-19" target="K0qhx6kUg9He7qWmusZ7-17">
          <mxGeometry relative="1" as="geometry" />
        </mxCell>
        <mxCell id="K0qhx6kUg9He7qWmusZ7-19" value="read n" style="shape=parallelogram;perimeter=parallelogramPerimeter;whiteSpace=wrap;html=1;fixedSize=1;" vertex="1" parent="1">
          <mxGeometry x="530" y="560" width="120" height="60" as="geometry" />
        </mxCell>
        <mxCell id="K0qhx6kUg9He7qWmusZ7-29" value="" style="edgeStyle=orthogonalEdgeStyle;rounded=0;orthogonalLoop=1;jettySize=auto;html=1;" edge="1" parent="1" source="K0qhx6kUg9He7qWmusZ7-27" target="K0qhx6kUg9He7qWmusZ7-5">
          <mxGeometry relative="1" as="geometry" />
        </mxCell>
        <mxCell id="K0qhx6kUg9He7qWmusZ7-27" value="&lt;div&gt;ris = 0&lt;/div&gt;&lt;div&gt;cont = 0&lt;br&gt;&lt;/div&gt;" style="rounded=0;whiteSpace=wrap;html=1;" vertex="1" parent="1">
          <mxGeometry x="370" y="270" width="120" height="60" as="geometry" />
        </mxCell>
        <mxCell id="K0qhx6kUg9He7qWmusZ7-55" style="edgeStyle=orthogonalEdgeStyle;rounded=0;orthogonalLoop=1;jettySize=auto;html=1;" edge="1" parent="1" source="K0qhx6kUg9He7qWmusZ7-32">
          <mxGeometry relative="1" as="geometry">
            <mxPoint x="960" y="690" as="targetPoint" />
          </mxGeometry>
        </mxCell>
        <mxCell id="K0qhx6kUg9He7qWmusZ7-32" value="ris = ris + n" style="whiteSpace=wrap;html=1;" vertex="1" parent="1">
          <mxGeometry x="730" y="660" width="120" height="60" as="geometry" />
        </mxCell>
        <mxCell id="K0qhx6kUg9He7qWmusZ7-38" value="" style="edgeStyle=orthogonalEdgeStyle;rounded=0;orthogonalLoop=1;jettySize=auto;html=1;" edge="1" parent="1" source="K0qhx6kUg9He7qWmusZ7-35" target="K0qhx6kUg9He7qWmusZ7-37">
          <mxGeometry relative="1" as="geometry" />
        </mxCell>
        <mxCell id="K0qhx6kUg9He7qWmusZ7-35" value="&lt;div&gt;x % 2 == 1 &lt;br&gt;&lt;/div&gt;&lt;div&gt;and n &amp;lt; x&lt;br&gt;&lt;/div&gt;" style="rhombus;whiteSpace=wrap;html=1;" vertex="1" parent="1">
          <mxGeometry x="340" y="760" width="120" height="80" as="geometry" />
        </mxCell>
        <mxCell id="K0qhx6kUg9He7qWmusZ7-56" style="edgeStyle=orthogonalEdgeStyle;rounded=0;orthogonalLoop=1;jettySize=auto;html=1;" edge="1" parent="1" source="K0qhx6kUg9He7qWmusZ7-37">
          <mxGeometry relative="1" as="geometry">
            <mxPoint x="960" y="410" as="targetPoint" />
          </mxGeometry>
        </mxCell>
        <mxCell id="K0qhx6kUg9He7qWmusZ7-37" value="ris = ris + n" style="whiteSpace=wrap;html=1;" vertex="1" parent="1">
          <mxGeometry x="340" y="890" width="120" height="60" as="geometry" />
        </mxCell>
        <mxCell id="K0qhx6kUg9He7qWmusZ7-51" value="end" style="ellipse;whiteSpace=wrap;html=1;" vertex="1" parent="1">
          <mxGeometry x="160" y="550" width="120" height="80" as="geometry" />
        </mxCell>
        <mxCell id="K0qhx6kUg9He7qWmusZ7-57" value="" style="endArrow=classic;html=1;rounded=0;entryX=1;entryY=0.5;entryDx=0;entryDy=0;" edge="1" parent="1" target="K0qhx6kUg9He7qWmusZ7-9">
          <mxGeometry width="50" height="50" relative="1" as="geometry">
            <mxPoint x="960" y="410" as="sourcePoint" />
            <mxPoint x="1010" y="350" as="targetPoint" />
          </mxGeometry>
        </mxCell>
        <mxCell id="K0qhx6kUg9He7qWmusZ7-58" value="cont +=1" style="rounded=0;whiteSpace=wrap;html=1;" vertex="1" parent="1">
          <mxGeometry x="530" y="470" width="120" height="60" as="geometry" />
        </mxCell>
      </root>
    </mxGraphModel>
  </diagram>
</mxfile>
